{
  "accessors": [
    {
      "bufferView": 2,
      "componentType": 5126,
      "count": 23081,
      "max": [
        7.8082966804504395,
        27.240510940551758,
        11.321747779846191
      ],
      "min": [
        -7.721651077270508,
        0.6360341906547546,
        -9.118989944458008
      ],
      "type": "VEC3"
    },
    {
      "bufferView": 2,
      "byteOffset": 276972,
      "componentType": 5126,
      "count": 23081,
      "max": [
        0.9999774694442749,
        0.9999827146530151,
        0.9999974966049194
      ],
      "min": [
        -0.9999366998672485,
        -0.9999291896820068,
        -0.9999673366546631
      ],
      "type": "VEC3"
    },
    {
      "bufferView": 3,
      "componentType": 5126,
      "count": 23081,
      "max": [
        0.9996165037155151,
        0.9999703168869019,
        0.9999173283576965,
        1.0
      ],
      "min": [
        -0.9973009824752808,
        -0.9833921194076538,
        -0.9999948740005493,
        -1.0
      ],
      "type": "VEC4"
    },
    {
      "bufferView": 1,
      "componentType": 5126,
      "count": 23081,
      "max": [
        0.7723541855812073,
        0.9998784065246582
      ],
      "min": [
        0.0001216573073179461,
        0.0001216573073179461
      ],
      "type": "VEC2"
    },
    {
      "bufferView": 0,
      "componentType": 5125,
      "count": 137448,
      "type": "SCALAR"
    },
    {
      "bufferView": 2,
      "byteOffset": 553944,
      "componentType": 5126,
      "count": 16270,
      "max": [
        5.163922309875488,
        19.321016311645508,
        8.679189682006836
      ],
      "min": [
        -5.183805465698242,
        15.441571235656738,
        4.665101051330566
      ],
      "type": "VEC3"
    },
    {
      "bufferView": 2,
      "byteOffset": 749184,
      "componentType": 5126,
      "count": 16270,
      "max": [
        1.0,
        1.0,
        1.0
      ],
      "min": [
        -1.0,
        -1.0,
        -1.0
      ],
      "type": "VEC3"
    },
    {
      "bufferView": 1,
      "byteOffset": 184648,
      "componentType": 5126,
      "count": 16270,
      "max": [
        0.9446322321891785,
        0.3382722735404968
      ],
      "min": [
        0.7725974917411804,
        0.0001216573073179461
      ],
      "type": "VEC2"
    },
    {
      "bufferView": 0,
      "byteOffset": 549792,
      "componentType": 5125,
      "count": 96768,
      "type": "SCALAR"
    }
  ],
  "asset": {
    "extras": {
      "author": "Businessuse (https://sketchfab.com/Businessuse)",
      "license": "CC-BY-4.0 (http://creativecommons.org/licenses/by/4.0/)",
      "source": "https://sketchfab.com/3d-models/head-c80e5333288e4e5792b2ca916408630b",
      "title": "Head"
    },
    "generator": "Sketchfab-12.67.0",
    "version": "2.0"
  },
  "bufferViews": [
    {
      "buffer": 0,
      "byteLength": 936864,
      "name": "floatBufferViews",
      "target": 34963
    },
    {
      "buffer": 0,
      "byteLength": 314808,
      "byteOffset": 936864,
      "byteStride": 8,
      "name": "floatBufferViews",
      "target": 34962
    },
    {
      "buffer": 0,
      "byteLength": 944424,
      "byteOffset": 1251672,
      "byteStride": 12,
      "name": "floatBufferViews",
      "target": 34962
    },
    {
      "buffer": 0,
      "byteLength": 369296,
      "byteOffset": 2196096,
      "byteStride": 16,
      "name": "floatBufferViews",
      "target": 34962
    }
  ],
  "buffers": [
    {
      "byteLength": 2565392,
      "uri": "scene.bin"
    }
  ],
  "images": [
    {
      "uri": "textures/head_baseColor.png"
    },
    {
      "uri": "textures/head_metallicRoughness.png"
    },
    {
      "uri": "textures/head_normal.png"
    }
  ],
  "materials": [
    {
      "doubleSided": true,
      "name": "head",
      "normalTexture": {
        "index": 2,
        "scale": 0.23837414892923675
      },
      "pbrMetallicRoughness": {
        "baseColorTexture": {
          "index": 0
        },
        "metallicRoughnessTexture": {
          "index": 1
        }
      }
    },
    {
      "doubleSided": true,
      "name": "eye.001",
      "pbrMetallicRoughness": {
        "baseColorFactor": [
          0.0,
          0.0,
          0.0,
          1.0
        ],
        "metallicFactor": 0.0,
        "roughnessFactor": 0.009025130030717587
      }
    }
  ],
  "meshes": [
    {
      "name": "Win Alenka.004_head_0",
      "primitives": [
        {
          "attributes": {
            "NORMAL": 1,
            "POSITION": 0,
            "TANGENT": 2,
            "TEXCOORD_0": 3
          },
          "indices": 4,
          "material": 0,
          "mode": 4
        }
      ]
    },
    {
      "name": "Win Alenka.004_eye.001_0",
      "primitives": [
        {
          "attributes": {
            "NORMAL": 6,
            "POSITION": 5,
            "TEXCOORD_0": 7
          },
          "indices": 8,
          "material": 1,
          "mode": 4
        }
      ]
    }
  ],
  "nodes": [
    {
      "children": [
        1
      ],
      "matrix": [
        1.0,
        0.0,
        0.0,
        0.0,
        0.0,
        2.220446049250313e-16,
        -1.0,
        0.0,
        0.0,
        1.0,
        2.220446049250313e-16,
        0.0,
        0.0,
        0.0,
        0.0,
        1.0
      ],
      "name": "Sketchfab_model"
    },
    {
      "children": [
        2
      ],
      "matrix": [
        1.0,
        0.0,
        0.0,
        0.0,
        0.0,
        0.0,
        1.0,
        0.0,
        0.0,
        -1.0,
        0.0,
        0.0,
        0.0,
        0.0,
        0.0,
        1.0
      ],
      "name": "a93ac73d3a694dfd83aeff28cb34c6df.fbx"
    },
    {
      "children": [
        3
      ],
      "name": "RootNode"
    },
    {
      "children": [
        4,
        5
      ],
      "matrix": [
        100.0,
        0.0,
        0.0,
        0.0,
        0.0,
        99.99999999999866,
        1.6292067073209114e-05,
        0.0,
        0.0,
        -1.6292067073209114e-05,
        99.99999999999866,
        0.0,
        0.0,
        0.0,
        0.0,
        1.0
      ],
      "name": "Win Alenka.004"
    },
    {
      "mesh": 0,
      "name": "Win Alenka.004_head_0"
    },
    {
      "mesh": 1,
      "name": "Win Alenka.004_eye.001_0"
    }
  ],
  "samplers": [
    {
      "magFilter": 9729,
      "minFilter": 9987,
      "wrapS": 10497,
      "wrapT": 10497
    }
  ],
  "scene": 0,
  "scenes": [
    {
      "name": "Sketchfab_Scene",
      "nodes": [
        0
      ]
    }
  ],
  "textures": [
    {
      "sampler": 0,
      "source": 0
    },
    {
      "sampler": 0,
      "source": 1
    },
    {
      "sampler": 0,
      "source": 2
    }
  ]
}
