{
  "accessors": [
    {
      "bufferView": 2,
      "componentType": 5126,
      "count": 42256,
      "max": [
        0.09746000170707703,
        0.13659000396728516,
        0.22807000577449799
      ],
      "min": [
        -0.0995199978351593,
        -0.13659000396728516,
        -0.20371000468730927
      ],
      "type": "VEC3"
    },
    {
      "bufferView": 2,
      "byteOffset": 507072,
      "componentType": 5126,
      "count": 42256,
      "max": [
        0.9999486804008484,
        0.999976396560669,
        0.997514545917511
      ],
      "min": [
        -0.9990822672843933,
        -0.999976396560669,
        -0.9998615384101868
      ],
      "type": "VEC3"
    },
    {
      "bufferView": 1,
      "componentType": 5126,
      "count": 42256,
      "max": [
        0.0,
        0.0
      ],
      "min": [
        0.0,
        0.0
      ],
      "type": "VEC2"
    },
    {
      "bufferView": 1,
      "byteOffset": 338048,
      "componentType": 5126,
      "count": 42256,
      "max": [
        0.9946200251579285,
        0.9972400069236755
      ],
      "min": [
        -0.0008800000068731606,
        0.0015899999998509884
      ],
      "type": "VEC2"
    },
    {
      "bufferView": 0,
      "componentType": 5125,
      "count": 63384,
      "type": "SCALAR"
    }
  ],
  "asset": {
    "extras": {
      "author": "zacko (https://sketchfab.com/zacko)",
      "license": "CC-BY-4.0 (http://creativecommons.org/licenses/by/4.0/)",
      "source": "https://sketchfab.com/3d-models/female-face-model-fine-topology-with-eyeballs-c1021efd444a42f0899ffdfc0367333b",
      "title": "female face model - fine topology, with eyeballs"
    },
    "generator": "Sketchfab-12.65.0",
    "version": "2.0"
  },
  "bufferViews": [
    {
      "buffer": 0,
      "byteLength": 253536,
      "name": "floatBufferViews",
      "target": 34963
    },
    {
      "buffer": 0,
      "byteLength": 676096,
      "byteOffset": 253536,
      "byteStride": 8,
      "name": "floatBufferViews",
      "target": 34962
    },
    {
      "buffer": 0,
      "byteLength": 1014144,
      "byteOffset": 929632,
      "byteStride": 12,
      "name": "floatBufferViews",
      "target": 34962
    }
  ],
  "buffers": [
    {
      "byteLength": 1943776,
      "uri": "scene.bin"
    }
  ],
  "materials": [
    {
      "doubleSided": true,
      "name": "Material",
      "pbrMetallicRoughness": {
        "metallicFactor": 0.0,
        "roughnessFactor": 0.6
      }
    }
  ],
  "meshes": [
    {
      "name": "BD_body.001_0",
      "primitives": [
        {
          "attributes": {
            "NORMAL": 1,
            "POSITION": 0,
            "TEXCOORD_0": 2,
            "TEXCOORD_1": 3
          },
          "indices": 4,
          "material": 0,
          "mode": 4
        }
      ]
    }
  ],
  "nodes": [
    {
      "children": [
        1
      ],
      "matrix": [
        1.0,
        0.0,
        0.0,
        0.0,
        0.0,
        2.220446049250313e-16,
        -1.0,
        0.0,
        0.0,
        1.0,
        2.220446049250313e-16,
        0.0,
        0.0,
        0.0,
        0.0,
        1.0
      ],
      "name": "Sketchfab_model"
    },
    {
      "children": [
        2
      ],
      "name": "Root"
    },
    {
      "children": [
        3
      ],
      "name": "BD_body.001"
    },
    {
      "mesh": 0,
      "name": "BD_body.001_0"
    }
  ],
  "scene": 0,
  "scenes": [
    {
      "name": "Sketchfab_Scene",
      "nodes": [
        0
      ]
    }
  ]
}
